<?xml version="1.0" standalone="no"?>
<!DOCTYPE svg PUBLIC "-//W3C//DTD SVG 20010904//EN"
 "http://www.w3.org/TR/2001/REC-SVG-20010904/DTD/svg10.dtd">
<svg version="1.0" xmlns="http://www.w3.org/2000/svg"
 width="700.000000pt" height="700.000000pt" viewBox="0 0 700.000000 700.000000"
 preserveAspectRatio="xMidYMid meet">
<metadata>
Created by potrace 1.14, written by Peter Selinger 2001-2017
</metadata>
<g transform="translate(0.000000,700.000000) scale(0.100000,-0.100000)"
fill="#000000" stroke="none">
<path d="M25 6975 l-25 -24 0 -3451 0 -3451 25 -24 24 -25 3451 0 3451 0 24
25 25 24 0 3451 0 3451 -25 24 -24 25 -3451 0 -3451 0 -24 -25z m6940 -10 l25
-24 0 -3441 0 -3441 -25 -24 -24 -25 -3441 0 -3441 0 -24 25 -25 24 0 3441 0
3441 25 24 24 25 3441 0 3441 0 24 -25z"/>
<path d="M225 6826 c-27 -12 -67 -41 -87 -64 -74 -82 -68 206 -66 -3282 l3
-3135 31 -55 c37 -66 102 -114 177 -129 37 -8 986 -10 3252 -9 l3200 3 53 24
c30 13 68 42 88 65 69 81 64 -189 62 3281 l-3 3140 -22 41 c-29 54 -101 117
-151 132 -30 9 -821 12 -3263 12 l-3224 0 -50 -24z m6195 -3321 l0 -2835
-2915 0 -2915 0 0 2835 0 2835 2915 0 2915 0 0 -2835z"/>
<path d="M970 3510 l0 -2580 860 0 860 0 0 2580 0 2580 -860 0 -860 0 0 -2580z"/>
<path d="M4136 6053 c-14 -21 -286 -454 -605 -963 l-581 -925 0 -1250 c0 -742
4 -1245 9 -1240 7 8 2956 4373 2978 4408 2 4 -397 7 -886 7 l-891 0 -24 -37z"/>
<path d="M4100 2904 c-272 -410 -499 -753 -503 -762 -5 -12 77 -192 281 -612
l289 -595 928 -3 c741 -2 926 0 922 10 -17 44 -1408 2703 -1414 2705 -4 2
-231 -333 -503 -743z"/>
</g>
</svg>
